<svg xmlns="http://www.w3.org/2000/svg" xmlns:xlink="http://www.w3.org/1999/xlink" width="1500" zoomAndPan="magnify" viewBox="0 0 1125 1124.99995" height="1500" preserveAspectRatio="xMidYMid meet" version="1.0"><defs><g/></defs><g fill="#2bc48a" fill-opacity="1"><g transform="translate(35.817029, 808.50399)"><g><path d="M 155.507812 0 L 171.234375 0 L 136.234375 -160.601562 L 86.835938 -31.675781 L 37.4375 -160.601562 L 2.214844 0 L 18.164062 0 L 41.425781 -107.214844 L 86.835938 8.859375 L 132.023438 -107.214844 Z M 155.507812 0 "/></g></g></g><g fill="#2bc48a" fill-opacity="1"><g transform="translate(248.248028, 808.50399)"><g><path d="M 66.675781 -77.308594 L 66.675781 -97.46875 C 63.574219 -98.796875 60.253906 -99.460938 56.929688 -99.460938 C 45.855469 -99.460938 37.878906 -93.257812 32.785156 -81.296875 L 32.121094 -77.308594 L 32.121094 -97.46875 L 16.613281 -97.46875 L 16.613281 0 L 32.121094 0 L 32.121094 -48.734375 C 32.121094 -56.707031 33.890625 -63.796875 37.65625 -70.222656 C 39.429688 -73.542969 41.867188 -76.425781 44.746094 -78.640625 C 47.625 -80.855469 51.171875 -82.183594 55.15625 -82.183594 C 59.144531 -82.183594 62.910156 -80.410156 66.675781 -77.308594 Z M 66.675781 -77.308594 "/></g></g></g><g fill="#2bc48a" fill-opacity="1"><g transform="translate(356.129202, 808.50399)"><g><path d="M 32.121094 0 L 32.121094 -67.339844 L 100.570312 -67.339844 L 100.570312 0 L 116.074219 0 L 116.074219 -150.632812 L 100.570312 -150.632812 L 100.570312 -82.847656 L 32.121094 -82.847656 L 32.121094 -150.632812 L 16.613281 -150.632812 L 16.613281 0 Z M 32.121094 0 "/></g></g></g><g fill="#2bc48a" fill-opacity="1"><g transform="translate(527.803458, 808.50399)"><g><path d="M 96.359375 -49.175781 C 96.359375 -39.429688 92.816406 -31.234375 85.949219 -24.367188 C 78.859375 -17.277344 70.664062 -13.957031 60.917969 -13.957031 C 51.171875 -13.957031 42.753906 -17.277344 35.886719 -24.367188 C 28.796875 -31.234375 25.476562 -39.429688 25.476562 -49.175781 C 25.476562 -58.925781 28.796875 -67.121094 35.886719 -74.207031 C 42.753906 -81.074219 51.171875 -84.621094 60.917969 -84.621094 C 70.664062 -84.621094 78.859375 -81.074219 85.949219 -74.207031 C 92.816406 -67.121094 96.359375 -58.925781 96.359375 -49.175781 Z M 111.867188 -49.175781 C 111.867188 -63.132812 106.773438 -75.09375 96.804688 -85.0625 C 86.835938 -95.03125 74.875 -100.125 60.917969 -100.125 C 46.742188 -100.125 34.777344 -95.03125 24.808594 -85.0625 C 14.839844 -75.09375 9.96875 -63.132812 9.96875 -49.175781 C 9.96875 -35 14.839844 -23.039062 24.808594 -13.292969 C 34.777344 -3.324219 46.960938 1.550781 60.917969 1.550781 C 74.652344 1.550781 86.835938 -3.324219 96.804688 -13.292969 C 106.773438 -23.039062 111.867188 -35 111.867188 -49.175781 Z M 111.867188 -49.175781 "/></g></g></g><g fill="#2bc48a" fill-opacity="1"><g transform="translate(688.624121, 808.50399)"><g><path d="M 83.957031 -16.613281 L 83.957031 0 L 99.460938 0 L 99.460938 -97.46875 L 83.957031 -97.46875 L 83.957031 -56.707031 C 83.957031 -42.972656 81.296875 -32.5625 76.203125 -24.808594 C 71.328125 -17.277344 62.691406 -13.511719 50.726562 -13.511719 C 44.082031 -13.511719 39.207031 -15.726562 36.328125 -20.15625 C 33.449219 -24.589844 32.121094 -30.125 32.121094 -36.550781 L 32.121094 -97.46875 L 16.613281 -97.46875 L 16.613281 -36.550781 C 16.613281 -25.253906 19.492188 -15.949219 25.695312 -8.640625 C 31.898438 -1.550781 40.316406 1.992188 51.390625 1.992188 C 65.789062 1.992188 76.644531 -4.207031 83.957031 -16.613281 Z M 83.957031 -16.613281 "/></g></g></g><g fill="#2bc48a" fill-opacity="1"><g transform="translate(840.363096, 808.50399)"><g><path d="M 30.570312 -13.734375 C 26.804688 -16.390625 23.925781 -20.824219 22.375 -27.246094 L 5.980469 -27.246094 C 9.304688 -7.089844 22.152344 2.878906 44.746094 2.878906 C 50.0625 2.878906 54.9375 2.4375 59.589844 1.109375 C 64.242188 -0.222656 68.226562 -1.992188 71.992188 -4.429688 C 79.523438 -9.523438 83.289062 -17.277344 83.289062 -27.691406 C 83.289062 -38.324219 78.417969 -45.855469 68.226562 -50.726562 C 64.019531 -52.722656 59.367188 -54.273438 54.273438 -55.378906 C 49.398438 -56.488281 44.746094 -57.816406 40.539062 -59.144531 C 36.109375 -60.472656 32.5625 -62.246094 29.683594 -64.242188 C 26.804688 -66.234375 25.253906 -69.335938 25.253906 -73.765625 C 25.253906 -78.195312 27.023438 -81.519531 30.570312 -83.511719 C 34.113281 -85.726562 38.324219 -86.835938 42.972656 -86.835938 C 47.847656 -86.835938 52.058594 -85.726562 55.378906 -83.957031 C 58.703125 -82.183594 61.359375 -78.640625 62.910156 -73.324219 L 79.523438 -73.324219 C 77.53125 -83.070312 73.324219 -89.9375 67.121094 -93.703125 C 60.695312 -97.691406 52.941406 -99.683594 43.417969 -99.683594 C 34.113281 -99.683594 25.917969 -97.023438 19.050781 -92.152344 C 12.40625 -87.058594 8.859375 -79.746094 8.859375 -70 C 8.859375 -65.347656 10.191406 -61.140625 12.625 -57.59375 C 15.285156 -53.828125 19.050781 -50.949219 23.925781 -48.734375 C 28.355469 -46.742188 33.007812 -45.191406 37.878906 -43.859375 C 42.753906 -42.753906 47.40625 -41.425781 51.835938 -40.09375 C 61.804688 -36.773438 66.898438 -31.898438 66.898438 -25.695312 C 66.898438 -15.0625 59.808594 -9.96875 45.632812 -9.96875 C 39.652344 -9.96875 34.558594 -11.074219 30.570312 -13.734375 Z M 30.570312 -13.734375 "/></g></g></g><g fill="#2bc48a" fill-opacity="1"><g transform="translate(968.401093, 808.50399)"><g><path d="M 111.867188 -50.949219 C 111.867188 -64.242188 106.550781 -75.757812 96.359375 -85.726562 C 86.390625 -95.253906 74.429688 -100.125 60.917969 -100.125 C 46.742188 -100.125 34.777344 -95.03125 24.808594 -85.0625 C 14.839844 -75.09375 9.96875 -63.132812 9.96875 -49.175781 C 9.96875 -35 14.839844 -23.039062 24.808594 -13.292969 C 29.460938 -8.640625 34.777344 -5.09375 40.980469 -2.4375 C 47.183594 0.222656 54.492188 1.550781 63.132812 1.550781 C 71.773438 1.550781 80.191406 -1.109375 88.605469 -6.425781 C 97.023438 -11.742188 103.226562 -19.273438 107.4375 -28.574219 L 89.714844 -28.574219 C 86.171875 -23.925781 81.960938 -20.378906 76.867188 -17.722656 C 71.773438 -15.0625 66.457031 -13.957031 60.917969 -13.957031 C 52.5 -13.957031 44.96875 -16.613281 38.324219 -22.152344 C 31.675781 -27.46875 27.46875 -34.335938 26.140625 -42.753906 L 111.867188 -42.753906 Z M 95.472656 -56.042969 L 26.359375 -56.042969 C 27.246094 -60.03125 28.796875 -63.796875 31.011719 -67.339844 C 38.101562 -78.859375 48.070312 -84.621094 60.917969 -84.621094 C 69.113281 -84.621094 76.425781 -81.960938 82.847656 -76.644531 C 89.492188 -71.105469 93.480469 -64.242188 95.472656 -56.042969 Z M 95.472656 -56.042969 "/></g></g></g><path fill="#2bc48a" d="M 67.21875 553.410156 L 483.863281 284.039062 C 483.863281 284.039062 900.507812 553.410156 900.507812 553.410156 C 904.820312 556.195312 910.589844 554.960938 913.378906 550.652344 C 916.167969 546.34375 914.933594 540.578125 910.613281 537.792969 C 910.613281 537.792969 488.917969 265.15625 488.917969 265.15625 C 485.84375 263.164062 481.882812 263.164062 478.8125 265.15625 C 478.8125 265.15625 57.109375 537.792969 57.109375 537.792969 C 52.796875 540.578125 51.5625 546.34375 54.355469 550.652344 C 57.144531 554.960938 62.90625 556.195312 67.21875 553.410156 Z M 67.21875 553.410156 " fill-opacity="1" fill-rule="evenodd"/><path fill="#2bc48a" d="M 586.871094 339.121094 L 663.507812 289.566406 C 663.507812 289.566406 1057.421875 547.816406 1057.421875 547.816406 C 1061.714844 550.632812 1067.492188 549.433594 1070.308594 545.136719 C 1073.121094 540.847656 1071.921875 535.082031 1067.628906 532.265625 C 1067.628906 532.265625 668.652344 270.695312 668.652344 270.695312 C 665.566406 268.671875 661.585938 268.660156 658.492188 270.65625 C 658.492188 270.65625 624.5625 292.59375 576.761719 323.503906 C 572.449219 326.289062 571.207031 332.046875 574.003906 336.363281 C 576.792969 340.671875 582.558594 341.90625 586.871094 339.121094 Z M 586.871094 339.121094 " fill-opacity="1" fill-rule="evenodd"/><path fill="#2bc48a" d="M 293.53125 398.738281 L 293.53125 328.496094 C 293.53125 323.390625 289.367188 319.238281 284.253906 319.238281 L 206.726562 319.238281 C 201.578125 319.238281 197.449219 323.390625 197.449219 328.496094 L 197.449219 452.136719 C 197.449219 457.242188 201.578125 461.394531 206.726562 461.394531 C 211.839844 461.394531 216.003906 457.242188 216.003906 452.136719 L 216.003906 337.753906 C 216.003906 337.753906 274.976562 337.753906 274.976562 337.753906 L 274.976562 398.738281 C 274.976562 403.84375 279.140625 407.996094 284.253906 407.996094 C 289.367188 407.996094 293.53125 403.84375 293.53125 398.738281 Z M 293.53125 398.738281 " fill-opacity="1" fill-rule="evenodd"/></svg>