<svg xmlns="http://www.w3.org/2000/svg" width="1em" height="1em" viewBox="0 0 21 21"><g transform="rotate(180 10.5 10.5)"><g fill="none" fill-rule="evenodd" transform="translate(4 1)"><path stroke="currentColor" stroke-linecap="round" stroke-linejoin="round" d="M2.5 2.5h2v14h-2a2 2 0 0 1-2-2v-10a2 2 0 0 1 2-2zM7.202.513l4 1.5A2 2 0 0 1 12.5 3.886v11.228a2 2 0 0 1-1.298 1.873l-4 1.5A2 2 0 0 1 4.5 16.614V2.386A2 2 0 0 1 7.202.513z"/><circle cx="6.5" cy="9.5" r="1" fill="currentColor"/></g></g></svg>