<svg xmlns="http://www.w3.org/2000/svg" xmlns:xlink="http://www.w3.org/1999/xlink" width="1500" zoomAndPan="magnify" viewBox="0 0 1125 562.499983" height="750" preserveAspectRatio="xMidYMid meet" version="1.0"><defs><g/><clipPath id="9830ff75ea"><path d="M 1 25.070312 L 951 25.070312 L 951 347 L 1 347 Z M 1 25.070312 " clip-rule="nonzero"/></clipPath></defs><g fill="#198754" fill-opacity="1"><g transform="translate(63.875352, 516.177108)"><g><path d="M 49.625 -173.296875 L 106.28125 -31.890625 L 162.9375 -173.296875 L 192.578125 -173.296875 L 192.578125 0 L 169.71875 0 L 169.71875 -67.484375 L 171.859375 -140.328125 L 114.96875 0 L 97.46875 0 L 40.703125 -139.96875 L 42.96875 -67.484375 L 42.96875 0 L 20.109375 0 L 20.109375 -173.296875 Z M 49.625 -173.296875 "/></g></g><g transform="translate(276.675266, 516.177108)"><g><path d="M 78.90625 -109.015625 C 75.570312 -109.578125 71.960938 -109.859375 68.078125 -109.859375 C 53.640625 -109.859375 43.84375 -103.707031 38.6875 -91.40625 L 38.6875 0 L 16.65625 0 L 16.65625 -128.78125 L 38.09375 -128.78125 L 38.4375 -113.90625 C 45.664062 -125.40625 55.90625 -131.15625 69.15625 -131.15625 C 73.4375 -131.15625 76.6875 -130.601562 78.90625 -129.5 Z M 78.90625 -109.015625 "/></g></g><g transform="translate(359.153085, 516.177108)"><g><path d="M 153.296875 0 L 130.328125 0 L 130.328125 -80.09375 L 42.96875 -80.09375 L 42.96875 0 L 20.109375 0 L 20.109375 -173.296875 L 42.96875 -173.296875 L 42.96875 -98.78125 L 130.328125 -98.78125 L 130.328125 -173.296875 L 153.296875 -173.296875 Z M 153.296875 0 "/></g></g><g transform="translate(532.915878, 516.177108)"><g><path d="M 10.828125 -65.578125 C 10.828125 -78.191406 13.304688 -89.535156 18.265625 -99.609375 C 23.222656 -109.691406 30.125 -117.46875 38.96875 -122.9375 C 47.820312 -128.414062 57.921875 -131.15625 69.265625 -131.15625 C 86.804688 -131.15625 100.988281 -125.082031 111.8125 -112.9375 C 122.644531 -100.800781 128.0625 -84.660156 128.0625 -64.515625 L 128.0625 -62.953125 C 128.0625 -50.421875 125.660156 -39.175781 120.859375 -29.21875 C 116.054688 -19.257812 109.191406 -11.503906 100.265625 -5.953125 C 91.347656 -0.398438 81.09375 2.375 69.5 2.375 C 52.050781 2.375 37.910156 -3.691406 27.078125 -15.828125 C 16.242188 -27.972656 10.828125 -44.039062 10.828125 -64.03125 Z M 32.96875 -62.953125 C 32.96875 -48.671875 36.28125 -37.207031 42.90625 -28.5625 C 49.53125 -19.914062 58.394531 -15.59375 69.5 -15.59375 C 80.6875 -15.59375 89.570312 -19.972656 96.15625 -28.734375 C 102.75 -37.503906 106.046875 -49.785156 106.046875 -65.578125 C 106.046875 -79.703125 102.691406 -91.144531 95.984375 -99.90625 C 89.285156 -108.675781 80.378906 -113.0625 69.265625 -113.0625 C 58.398438 -113.0625 49.632812 -108.738281 42.96875 -100.09375 C 36.300781 -91.445312 32.96875 -79.066406 32.96875 -62.953125 Z M 32.96875 -62.953125 "/></g></g><g transform="translate(671.926112, 516.177108)"><g><path d="M 96.171875 -12.734375 C 87.597656 -2.660156 75.019531 2.375 58.4375 2.375 C 44.707031 2.375 34.253906 -1.609375 27.078125 -9.578125 C 19.898438 -17.554688 16.269531 -29.359375 16.1875 -44.984375 L 16.1875 -128.78125 L 38.203125 -128.78125 L 38.203125 -45.578125 C 38.203125 -26.066406 46.140625 -16.3125 62.015625 -16.3125 C 78.828125 -16.3125 90.015625 -22.578125 95.578125 -35.109375 L 95.578125 -128.78125 L 117.59375 -128.78125 L 117.59375 0 L 96.640625 0 Z M 96.171875 -12.734375 "/></g></g><g transform="translate(806.294736, 516.177108)"><g><path d="M 91.640625 -34.15625 C 91.640625 -40.101562 89.394531 -44.722656 84.90625 -48.015625 C 80.425781 -51.316406 72.613281 -54.15625 61.46875 -56.53125 C 50.320312 -58.914062 41.472656 -61.773438 34.921875 -65.109375 C 28.378906 -68.441406 23.539062 -72.40625 20.40625 -77 C 17.269531 -81.601562 15.703125 -87.078125 15.703125 -93.421875 C 15.703125 -103.984375 20.164062 -112.910156 29.09375 -120.203125 C 38.019531 -127.503906 49.425781 -131.15625 63.3125 -131.15625 C 77.914062 -131.15625 89.757812 -127.382812 98.84375 -119.84375 C 107.925781 -112.3125 112.46875 -102.675781 112.46875 -90.9375 L 90.328125 -90.9375 C 90.328125 -96.957031 87.769531 -102.148438 82.65625 -106.515625 C 77.539062 -110.878906 71.09375 -113.0625 63.3125 -113.0625 C 55.300781 -113.0625 49.035156 -111.316406 44.515625 -107.828125 C 39.992188 -104.335938 37.734375 -99.773438 37.734375 -94.140625 C 37.734375 -88.828125 39.832031 -84.820312 44.03125 -82.125 C 48.238281 -79.425781 55.835938 -76.847656 66.828125 -74.390625 C 77.816406 -71.929688 86.722656 -68.992188 93.546875 -65.578125 C 100.367188 -62.171875 105.425781 -58.066406 108.71875 -53.265625 C 112.007812 -48.460938 113.65625 -42.609375 113.65625 -35.703125 C 113.65625 -24.203125 109.050781 -14.976562 99.84375 -8.03125 C 90.644531 -1.09375 78.707031 2.375 64.03125 2.375 C 53.71875 2.375 44.59375 0.550781 36.65625 -3.09375 C 28.71875 -6.738281 22.507812 -11.832031 18.03125 -18.375 C 13.550781 -24.925781 11.3125 -32.015625 11.3125 -39.640625 L 33.328125 -39.640625 C 33.722656 -32.253906 36.675781 -26.398438 42.1875 -22.078125 C 47.707031 -17.753906 54.988281 -15.59375 64.03125 -15.59375 C 72.363281 -15.59375 79.046875 -17.273438 84.078125 -20.640625 C 89.117188 -24.015625 91.640625 -28.519531 91.640625 -34.15625 Z M 91.640625 -34.15625 "/></g></g><g transform="translate(931.975221, 516.177108)"><g><path d="M 70.109375 2.375 C 52.648438 2.375 38.441406 -3.351562 27.484375 -14.8125 C 16.535156 -26.28125 11.0625 -41.613281 11.0625 -60.8125 L 11.0625 -64.859375 C 11.0625 -77.640625 13.5 -89.046875 18.375 -99.078125 C 23.257812 -109.117188 30.085938 -116.972656 38.859375 -122.640625 C 47.628906 -128.316406 57.128906 -131.15625 67.359375 -131.15625 C 84.109375 -131.15625 97.125 -125.640625 106.40625 -114.609375 C 115.6875 -103.585938 120.328125 -87.800781 120.328125 -67.25 L 120.328125 -58.078125 L 33.09375 -58.078125 C 33.40625 -45.378906 37.113281 -35.125 44.21875 -27.3125 C 51.320312 -19.5 60.347656 -15.59375 71.296875 -15.59375 C 79.066406 -15.59375 85.648438 -17.175781 91.046875 -20.34375 C 96.441406 -23.519531 101.164062 -27.726562 105.21875 -32.96875 L 118.65625 -22.5 C 107.863281 -5.914062 91.679688 2.375 70.109375 2.375 Z M 67.359375 -113.0625 C 58.472656 -113.0625 51.015625 -109.828125 44.984375 -103.359375 C 38.953125 -96.898438 35.222656 -87.835938 33.796875 -76.171875 L 98.3125 -76.171875 L 98.3125 -77.84375 C 97.675781 -89.03125 94.660156 -97.695312 89.265625 -103.84375 C 83.867188 -109.988281 76.566406 -113.0625 67.359375 -113.0625 Z M 67.359375 -113.0625 "/></g></g></g><g clip-path="url(#9830ff75ea)"><path fill="#198754" d="M 17.605469 344.90625 L 476.058594 48.25 C 476.058594 48.25 934.511719 344.90625 934.511719 344.90625 C 939.253906 347.976562 945.601562 346.621094 948.671875 341.875 C 951.742188 337.128906 950.382812 330.777344 945.632812 327.707031 C 945.632812 327.707031 481.621094 27.457031 481.621094 27.457031 C 478.234375 25.265625 473.878906 25.265625 470.5 27.457031 C 470.5 27.457031 6.484375 327.707031 6.484375 327.707031 C 1.738281 330.777344 0.378906 337.128906 3.449219 341.875 C 6.519531 346.621094 12.859375 347.976562 17.605469 344.90625 Z M 17.605469 344.90625 " fill-opacity="1" fill-rule="evenodd"/></g><path fill="#198754" d="M 589.402344 108.910156 L 673.730469 54.339844 C 673.730469 54.339844 1107.171875 338.75 1107.171875 338.75 C 1111.894531 341.851562 1118.25 340.53125 1121.351562 335.800781 C 1124.445312 331.074219 1123.125 324.722656 1118.402344 321.621094 C 1118.402344 321.621094 679.386719 33.554688 679.386719 33.554688 C 675.996094 31.328125 671.617188 31.3125 668.210938 33.515625 C 668.210938 33.515625 630.878906 57.671875 578.277344 91.710938 C 573.53125 94.78125 572.167969 101.125 575.242188 105.875 C 578.3125 110.621094 584.660156 111.980469 589.402344 108.910156 Z M 589.402344 108.910156 " fill-opacity="1" fill-rule="evenodd"/><path fill="#198754" d="M 266.625 174.570312 L 266.625 97.210938 C 266.625 91.589844 262.046875 87.015625 256.417969 87.015625 L 171.109375 87.015625 C 165.449219 87.015625 160.902344 91.589844 160.902344 97.210938 L 160.902344 233.378906 C 160.902344 239.003906 165.449219 243.574219 171.109375 243.574219 C 176.738281 243.574219 181.320312 239.003906 181.320312 233.378906 L 181.320312 107.40625 C 181.320312 107.40625 246.210938 107.40625 246.210938 107.40625 L 246.210938 174.570312 C 246.210938 180.195312 250.792969 184.765625 256.417969 184.765625 C 262.046875 184.765625 266.625 180.195312 266.625 174.570312 Z M 266.625 174.570312 " fill-opacity="1" fill-rule="evenodd"/></svg>