<svg xmlns="http://www.w3.org/2000/svg" viewBox="0 0 186.74 241.66"><defs><style>.cls-1{fill:#30a381;}.cls-2{fill:#687fcb;}.cls-3{fill:#646470;}</style></defs><g id="OBJECTS"><path class="cls-1" d="M112.81,6.36V82.84h64.52v17.9H112.81v4h69.05a1,1,0,0,1,1,1v27.42a1,1,0,0,1-1,1H112.81v4h64.52v17.9H112.81v31.3l88.35,16V22.4Zm42.83,54.19a1,1,0,0,1-.79.39H141.43V77.73a1,1,0,1,1-2,0V60.94H126a1,1,0,0,1-.79-.39,1,1,0,0,1-.18-.87l6.41-23.9a1,1,0,0,1,1-.75h16a1,1,0,0,1,1,.75l6.4,23.9A1,1,0,0,1,155.64,60.55ZM176.23,184a.82.82,0,0,1-.22,0,1,1,0,0,1-1-.78l-4.84-21.7a1,1,0,0,1,2-.44L177,182.76A1,1,0,0,1,176.23,184Z" transform="translate(-14.42 -6.36)"/><polygon class="cls-1" points="118.76 30.68 112.89 52.58 126 52.58 139.12 52.58 133.25 30.68 118.76 30.68"/><path class="cls-1" d="M180.86,106.77H112.81v25.42h68.05ZM148,120.48H132.87a1,1,0,0,1,0-2H148a1,1,0,0,1,0,2Z" transform="translate(-14.42 -6.36)"/><path class="cls-1" d="M148,148.17a1,1,0,0,0,0-2H132.87a1,1,0,0,0,0,2Z" transform="translate(-14.42 -6.36)"/><path class="cls-1" d="M148,92.79a1,1,0,0,0,0-2H132.87a1,1,0,0,0,0,2Z" transform="translate(-14.42 -6.36)"/><path class="cls-2" d="M51,94.65a22.81,22.81,0,0,1,4.2,1.9,21.77,21.77,0,0,1,10.86,18.91v23.78h36.7V71.43H74.66A23.67,23.67,0,0,0,51,94.65Zm35.92,9a1,1,0,0,1,0-1.41,1,1,0,0,1,1.41,0L90.12,104l1.76-1.76a1,1,0,1,1,1.42,1.41l-1.77,1.77,1.77,1.76a1,1,0,0,1,0,1.41,1,1,0,0,1-.71.3,1,1,0,0,1-.71-.3l-1.76-1.76-1.77,1.76a1,1,0,0,1-1.41,0,1,1,0,0,1,0-1.41l1.76-1.76Z" transform="translate(-14.42 -6.36)"/><path class="cls-2" d="M14.42,49.32V212.91l88.36-16V170.38H66.08v.35a1,1,0,0,1-.19.57c-.12.17-3.1,4.26-13.4,4.26-10.08,0-13-4.1-13.08-4.27a1,1,0,0,1-.17-.56V133.65a1,1,0,0,1,2,0v36.71c.69.72,3.63,3.2,11.25,3.2,7.8,0,10.85-2.47,11.59-3.21V115.46A19.79,19.79,0,0,0,54.2,98.28a18.79,18.79,0,0,0-18.82-.34,17.84,17.84,0,0,0-3.83,2.85,15.86,15.86,0,0,0,0,22.38,12.47,12.47,0,0,0,15.82,1.49,10.31,10.31,0,0,0,4-11.56,8.12,8.12,0,0,0-5.93-5.85,7.19,7.19,0,0,0-7,2.08,5,5,0,0,0-.86,5.31,3.28,3.28,0,0,0,2.55,1.82,2.89,2.89,0,0,0,2.48-.81A1,1,0,0,1,44.1,117a4.87,4.87,0,0,1-4.22,1.47,5.27,5.27,0,0,1-4.08-2.88c-1.54-3-.1-6.22,1.16-7.59a9.17,9.17,0,0,1,8.91-2.66,10.17,10.17,0,0,1,7.39,7.22,12.32,12.32,0,0,1-4.77,13.79,14.46,14.46,0,0,1-18.35-1.74,17.84,17.84,0,0,1,0-25.2,19.23,19.23,0,0,1,4.27-3.18A20.52,20.52,0,0,1,49,94.1,25.68,25.68,0,0,1,74.66,69.43h28.12V33.28ZM44,177.52a1,1,0,0,1,2,0v3.06c.52.48,2.32,1.76,6.61,1.76s6.24-1.27,6.8-1.77v-3a1,1,0,0,1,2,0V181a1,1,0,0,1-.18.57c-.2.29-2.15,2.8-8.62,2.8s-8.24-2.52-8.44-2.81A1,1,0,0,1,44,181Z" transform="translate(-14.42 -6.36)"/><rect class="cls-2" x="51.65" y="134.88" width="36.7" height="27.15"/><path class="cls-3" d="M23.45,227.65h5.47l2.16,13.69,2.14-13.69h5.47V248H35.22V233.44L32.7,248H29.55l-2.63-14.58V248H23.45Z" transform="translate(-14.42 -6.36)"/><path class="cls-3" d="M53.31,248h-.73V227.65h3.91a5,5,0,0,1,5,5v3.05A4.84,4.84,0,0,1,60.1,239a4.92,4.92,0,0,1,1.39,3.31v3.84a3.68,3.68,0,0,0,.3,1.88H58.44a2.07,2.07,0,0,1-.26-.87c0-.34,0-.68-.06-1V242.3a1.55,1.55,0,0,0-.48-1.15,1.56,1.56,0,0,0-1.15-.48h-.56V248H53.31Zm2.62-10.7h.68a1.64,1.64,0,0,0,1.63-1.63v-3.05A1.64,1.64,0,0,0,56.61,231h-.68Z" transform="translate(-14.42 -6.36)"/><path class="cls-3" d="M96.28,227.65H97v8.51h2.41v-8.51h3.36V248H99.42v-8.51H97V248H93.65V227.65h2.63Z" transform="translate(-14.42 -6.36)"/><path class="cls-3" d="M124.18,229a4.34,4.34,0,0,1,1.33,3.18v11.34a4.38,4.38,0,0,1-1.33,3.18A4.31,4.31,0,0,1,121,248a4.26,4.26,0,0,1-3.18-1.33,4.31,4.31,0,0,1-1.33-3.18V232.17a4.56,4.56,0,0,1,4.51-4.52A4.35,4.35,0,0,1,124.18,229Zm-4,2.36a1.15,1.15,0,0,0-.34.82v11.34a1.15,1.15,0,0,0,.34.82,1.15,1.15,0,0,0,1.63,0,1.11,1.11,0,0,0,.34-.82V232.17A1.16,1.16,0,0,0,121,231,1.15,1.15,0,0,0,120.17,231.35Z" transform="translate(-14.42 -6.36)"/><path class="cls-3" d="M148.23,243.51a4.52,4.52,0,0,1-9,0V227.65h3.36v15.86a1.11,1.11,0,0,0,.34.82,1.15,1.15,0,0,0,.82.34,1.16,1.16,0,0,0,1.14-1.16V227.65h3.37v15.86Z" transform="translate(-14.42 -6.36)"/><path class="cls-3" d="M166.26,248a4.39,4.39,0,0,1-4.34-4.51v-2.16h3.23v2.16a1.14,1.14,0,0,0,1.11,1.16,1,1,0,0,0,1-1.16v-1.07c0-1.11-.93-1.86-1.39-2.44-.91-1.13-2.41-2.42-3-3.21a6.76,6.76,0,0,1-1-3.08l-.05-1.54a4.5,4.5,0,0,1,4.47-4.52,4.31,4.31,0,0,1,4.24,4.52v2.15h-3.24v-2.15a1.05,1.05,0,0,0-1-1.16,1.13,1.13,0,0,0-1.11,1.16V233a4,4,0,0,0,.56,1.65,13.05,13.05,0,0,0,1.71,1.75,13.68,13.68,0,0,1,2.29,2.58,6.82,6.82,0,0,1,.85,2.94l0,1.56A4.35,4.35,0,0,1,166.26,248Z" transform="translate(-14.42 -6.36)"/><path class="cls-3" d="M191.4,227.65h.74V231h-4.68v5.15h2.78v3.35h-2.78v5.16h4.68V248h-8V227.65h7.29Z" transform="translate(-14.42 -6.36)"/></g></svg>